<?xml version="1.0" encoding="UTF-8"?>
<svg xmlns="http://www.w3.org/2000/svg" version="1.1" viewBox="0 0 800 800">
  <defs>
    <style>
      .cls-1, .cls-2 {
        stroke: #4f6f2a;
      }

      .cls-1, .cls-2, .cls-3 {
        stroke-miterlimit: 10;
        stroke-width: 11px;
      }

      .cls-1, .cls-3 {
        fill: #b5d490;
        stroke-linecap: round;
      }

      .cls-2 {
        fill: #506f2a;
      }

      .cls-3 {
        stroke: #50702a;
      }

      .cls-4 {
        fill: #9b3a43;
      }
    </style>
  </defs>
  <!-- Generator: Adobe Illustrator 28.7.1, SVG Export Plug-In . SVG Version: 1.2.0 Build 142)  -->
  <g>
    <g id="Layer_1">
      <path id="jaw" class="cls-2" d="M579.3,244.7l155.1-.4c.7,0,1.1.7.9,1.4-.4,1.4-3.3,5.1-4,5.5l-215.2,101.9"/>
      <path id="body" class="cls-1" d="M724.2,190s-16.2-35.9-25.9-44.1c-6.1-5.2-21.8-11.1-29.7-11.5-15.8-.8-46.5,8.4-62.4,10.6-10.3-.4-30.3-3.8-40.3-1.9s-32.6,10.3-40.3,16.3c-9.7,7.8-20,22.1-25,30.7-11.6,20-21.5,66.6-33.6,86.4-9.2,15.1-32.8,42.3-47,52.8-17.6,12.9-60.4,25.2-79.6,35.5-8.9,4.8-26,16.4-32.6,24-22.1,25.3-53.6,90.4-71,114.2-15.8,21.6-38.9,35-54.7,43.2-13.3,6.9-45.9,11.4-62.8,8.2-30.9-5.2-37.5-27.3-37.5-41.3,1.1-42.1,14-78.1,14-78.1,0,0-28.3,23.5-36.9,60.9-7.8,33.6-7.2,62.4-2.9,77.7,6.7,24,31.1,49.7,49.9,59.5,22.1,11.5,53.5,14.4,76.8,14.4s51.1-6.9,70-13.4c32.3-11.1,101.2-51.3,101.2-51.3l-3.8,44.1-8.6,78.7,116.1-2.9s12.1-37.8-27.8-80.6c-13.4-14.4,28.8-26.9,54.7-65.2,5.1-7.6-8.6-29.7-8.6-29.7,0,0,59.4-34.2,75.8-49.9,14.2-13.5,37-46,46-63.3,9.5-18.2,26.9-77.7,26.9-77.7l-39.3,11.5s68.7-20.4,90.2-30.7c11.8-5.6,36.2-17.4,44.1-27.8,7.6-10,17-43.1,15.5-44.4-2.2-1.8-39.5,12.9-52.9,16.6-23.5,6.5-95.9,16.3-95.9,16.3,0,0,49.4-21.5,63.3-32.6,10.2-8.2,22.8-32.8,33.6-40.3,9-6.2,41.3-14.4,41.3-14.4h0Z"/>
      <path id="paw" class="cls-1" d="M568.2,403.5s36.8,3,49.9,5.8c15.2,3.2,27.7,9.9,31.7,15.4,6.4,8.8,10.1,19.7,10.5,26.9.3,5.7.5,15.8-5.8,22.1-6.9,6.9-15.3,9.5-21.1,9.6-5.2,0-13.9-1.4-19.2-8.1s2.4-13.5-4.3-19.2c-14.3-12.2-70.5-14.9-70.5-14.9"/>
      <path id="leg" class="cls-3" d="M326.5,489.8s1.7,57.1,4.8,75.8c1.5,9.1,11.4,41.9,17.3,48.9,14.2,17.1,38.1,24.8,51.8,52.8,13.9,28.3,10,53,11.8,56.2.4.8,1.3,1.2,2.2,1.1l92.4-15.1s-8.5-21.2-11-31.2c-5.3-20.6-29.7-31.7-43.2-45.1-8.3-8.3,11.5-40.3,18.2-47,12.4-12.4,15.6-18,24.5-33.1,5.6-9.6,14.8-30.2,16.6-41.2,2.1-12.3.3-37.7-2.2-50-2-9.8-9.6-25.9-14.4-37.4"/>
      <circle class="cls-4" cx="580.2" cy="214.9" r="14.4"/>
    </g>
  </g>
</svg>