<?xml version="1.0" encoding="UTF-8"?>
<svg id="Layer_1" xmlns="http://www.w3.org/2000/svg" viewBox="0 0 315 75.04">
  <defs>
    <style>
      .cls-1 {
        fill: #f5802f;
      }

      .cls-1, .cls-2, .cls-3, .cls-4, .cls-5, .cls-6, .cls-7 {
        fill-rule: evenodd;
      }

      .cls-2 {
        fill: #ef5737;
      }

      .cls-3 {
        fill: #eb2946;
      }

      .cls-4 {
        fill: #ee443c;
      }

      .cls-5 {
        fill: #f4752f;
      }

      .cls-6 {
        fill: #f99c2a;
      }

      .cls-7 {
        fill: #f68c2c;
      }
    </style>
  </defs>
  <path d="M90.69,46.23c0,6.96,3.79,10.75,10.75,10.75h34.12c.44,0,1.06-.11,1.56-.61.45-.5.61-1.11.61-1.56v-4.18c0-1.28-.89-2.17-2.17-2.17h-32.79c-1.34,0-1.84-.28-2.23-.55-.28-.28-.56-.89-.56-2.17v-25.55c0-.45-.11-1.06-.61-1.56-.44-.5-1.06-.61-1.56-.61h-4.9c-.5,0-1.11.17-1.61.61-.39.5-.61,1.06-.61,1.56v26.05ZM90.69,46.23"/>
  <path d="M147.43,46.45c0,7.18,4.01,10.75,10.97,10.75h27.39c6.96,0,10.91-3.79,10.91-10.75v-17.87c0-7.18-3.95-10.75-10.91-10.75h-27.39c-7.18,0-10.97,3.56-10.97,10.75v17.87ZM156.67,29.09c0-1.06.22-1.78.61-2.06.39-.39,1.11-.67,2.51-.67h24.6c2.17,0,3.06.5,3.06,2.73v16.81c0,1.28-.28,1.72-.55,2.11-.39.39-1.11.67-2.51.67h-24.6c-1.39,0-2.12-.33-2.51-.72-.39-.28-.61-1-.61-2.06v-16.81ZM156.67,29.09"/>
  <path d="M211.34,18.01c-1.28,0-2.17.89-2.17,2.17v34.62c0,1.28.89,2.17,2.17,2.17h4.9c.5,0,1.11-.11,1.56-.61.5-.5.61-1.11.61-1.56v-25.22l28.22,26.44.11.11c.39.28.89.84,1.95.84h6.07c.5,0,1.17-.11,1.62-.61.5-.45.61-1.06.61-1.56V20.18c0-1.28-.95-2.17-2.23-2.17h-4.9c-1.28,0-2.17.89-2.17,2.17v25.21l-28.17-26.44q-.05-.05-.11-.05c-.39-.39-.89-.89-1.94-.89h-6.12ZM211.34,18.01"/>
  <path d="M268.85,18.01c-1.28,0-2.17.89-2.17,2.17v4.17c0,.5.11,1.11.61,1.61.5.45,1.11.56,1.56.56h17.43v28.28c0,.45.11,1.06.61,1.56.45.5,1.06.61,1.56.61h4.79c.5,0,1.11-.11,1.56-.61.5-.5.61-1.11.61-1.56v-28.28h17.37c1.28,0,2.23-.84,2.23-2.17v-4.17c0-.5-.22-1.06-.61-1.56-.5-.45-1.11-.61-1.61-.61h-43.92ZM268.85,18.01"/>
  <path class="cls-3" d="M2.43,0c1.34,0,2.43,1.09,2.43,2.43v70.19c0,1.34-1.09,2.43-2.43,2.43s-2.43-1.09-2.43-2.43V2.43c0-.64.25-1.26.71-1.71.45-.46,1.07-.71,1.71-.71h0ZM2.43,0"/>
  <path class="cls-4" d="M12.27,3.79c1.21,0,2.2.98,2.22,2.19v63.06c0,.8-.43,1.53-1.11,1.93-.69.39-1.53.39-2.23,0-.69-.4-1.11-1.13-1.11-1.93V5.98c.02-1.22,1.02-2.2,2.23-2.19h0ZM12.27,3.79"/>
  <path class="cls-2" d="M22.1,7.59c1.12,0,2.02.9,2.02,2.02v55.83c0,1.12-.91,2.02-2.02,2.02s-2.02-.91-2.02-2.02V9.6c0-1.12.91-2.02,2.02-2.02h0ZM22.1,7.59"/>
  <path class="cls-5" d="M31.94,11.38c.48,0,.94.19,1.28.53.34.34.53.81.53,1.29v48.66c-.07.96-.86,1.69-1.82,1.69s-1.75-.74-1.82-1.69V13.19c0-.48.19-.95.54-1.29.34-.34.81-.53,1.29-.53h0ZM31.94,11.38"/>
  <path class="cls-1" d="M41.77,15.16c.43,0,.84.17,1.14.48.3.3.47.72.47,1.14v41.48c0,.57-.3,1.11-.8,1.39-.5.29-1.11.29-1.61,0-.5-.29-.8-.82-.8-1.39V16.78c0-.43.17-.84.47-1.14.3-.31.71-.48,1.14-.48h0ZM41.77,15.16"/>
  <path class="cls-7" d="M51.61,18.95c.78,0,1.41.63,1.41,1.41v34.3c0,.5-.27.97-.71,1.22-.43.25-.97.25-1.41,0-.43-.25-.7-.72-.7-1.22V20.36c0-.78.63-1.41,1.41-1.41h0ZM51.61,18.95"/>
  <path class="cls-6" d="M62.65,23.96c0-.67-.54-1.21-1.21-1.21s-1.21.54-1.21,1.21v27.15c0,.67.54,1.21,1.21,1.21s1.21-.54,1.21-1.21v-27.15ZM62.65,23.96"/>
</svg>