<?xml version="1.0" encoding="utf-8"?>
<!-- Generator: Adobe Illustrator 19.2.1, SVG Export Plug-In . SVG Version: 6.00 Build 0)  -->
<svg version="1.1" id="layer" xmlns="http://www.w3.org/2000/svg" xmlns:xlink="http://www.w3.org/1999/xlink" x="0px" y="0px"
	 viewBox="0 0 652 652" style="enable-background:new 0 0 652 652;" xml:space="preserve">
<style type="text/css">
	.st0{fill:#BFD134;}
	.st1{fill:#1F90CF;}
</style>
<path class="st0" d="M536.8,402.9c0.3-0.5,0.2-1.1-0.2-1.7c-0.7-1-2.4-1.9-3.7-2c-0.8,0-1.5,0.2-1.8,0.7c-0.3,0.5-0.2,1.1,0.2,1.8
	c0.7,1,2.4,1.9,3.7,2C536.1,403.7,536.6,403.2,536.8,402.9"/>
<path class="st0" d="M527,396.6c-0.7-1-0.5-1.8-0.3-2.1c0.2-0.4,0.8-0.9,2.2-0.8c1.7,0.1,3.8,1.2,4.8,2.6c0.7,1,0.5,1.8,0.2,2.1
	c-0.2,0.4-0.8,1-2.2,0.9C530.1,399,528,397.9,527,396.6L527,396.6z M535,406.1c0.5,0.8,1.7,1.4,2.7,1.4c0.7,0,1.2-0.2,1.4-0.6
	c0.2-0.4,0.2-0.9-0.1-1.4c-0.5-0.7-1.7-1.4-2.7-1.4c-0.7,0-1.2,0.2-1.4,0.6C534.6,405.1,534.7,405.6,535,406.1 M556.8,403.6
	c-0.7,0.1-1.2,0.4-1.5,0.9c-0.1,0.3-0.3,1,0.5,1.9c0.9,1,2.7,1.8,3.9,1.7c0.7-0.1,1.3-0.4,1.5-0.9c0.2-0.6,0.1-1.3-0.6-1.9
	C559.8,404.2,558.1,403.5,556.8,403.6 M552.2,397.4c0.3-0.9-0.2-1.9-1.3-2.9c-1.7-1.6-4.4-2.6-6.2-2.2c-0.8,0.2-1.4,0.6-1.6,1.3
	c-0.3,0.9,0.2,2,1.3,3c1.6,1.5,4,2.4,5.8,2.2c-0.3,0.2-0.5,0.5-0.6,0.7c-0.1,0.2-0.1,0.4-0.1,0.5c0,0.6,0.3,1.2,0.9,1.9
	c1.3,1.3,3.5,2.2,5,2c1.1-0.1,1.5-0.7,1.7-1c0.3-0.7,0-1.6-0.8-2.4c-1.2-1.3-3.4-2.1-4.9-2C551.8,398.1,552.1,397.8,552.2,397.4
	 M574.6,400.4c1.4-0.3,3.7,0.4,5.1,1.7c1,0.8,1.4,1.8,1.1,2.5c-0.2,0.6-0.6,1-1.3,1.1c-1.4,0.3-3.6-0.4-5.1-1.7h0
	c-0.9-0.9-1.4-1.8-1.2-2.6C573.4,401,573.9,400.6,574.6,400.4 M588.1,396v0.2c0,1,0.7,2.1,2,3c2.1,1.5,4.7,2.1,6.2,1.4
	c0.6-0.3,1-0.8,1.1-1.4c0.1-1-0.6-2.2-2-3.2c-1.8-1.3-4.6-2.2-6.2-1.4C588.6,394.9,588.2,395.4,588.1,396 M600.2,386.4
	c-0.5,0.4-0.7,1-0.6,1.6c0.1,1.2,1.3,2.7,3.1,3.8c2.7,1.7,5.8,2,7.1,0.8c0.5-0.4,0.7-1,0.6-1.6c-0.1-1.2-1.3-2.7-3.1-3.8
	C604.6,385.5,601.5,385.2,600.2,386.4 M611.7,382.2c2.2,1.1,4.5,1.5,6.1,1.1l1.6-1.2c1-1.8-0.8-4.4-4.2-6.1
	c-2.2-1.1-4.5-1.5-6.1-1.1l-1.6,1.2c-0.2,0.3-0.2,0.7-0.2,1C607.2,378.7,608.9,380.8,611.7,382.2 M624.7,369.3
	c0.4-2.1-2.3-5-6.1-6.6c-2.5-1-5-1.2-6.4-0.5c-0.8,0.4-1.2,1-1.4,1.7c-0.4,2.2,2.3,5.1,6.1,6.6v0c2.6,1,5,1.2,6.5,0.5
	C624.1,370.6,624.6,370,624.7,369.3 M611.2,347.8c-0.7,0.5-1,1.2-1,2.1c0,0.1,0,0.2,0,0.4c0.3,2.6,3.9,5.6,8.1,6.9
	c2.7,0.9,5.1,0.8,6.4-0.2c0.8-0.6,1.1-1.5,1-2.4c-0.3-2.6-3.8-5.6-8-6.9C615,346.8,612.6,346.8,611.2,347.8 M572.9,400.6
	c0.7-0.3,1.2-0.8,1.3-1.4c0.2-1-0.5-2.1-1.7-3.1c-1.9-1.6-4.6-2.3-6.2-1.7c-0.7,0.3-1.1,0.7-1.3,1.4c0,0.1,0,0.2,0,0.3
	c0,0.9,0.6,1.9,1.7,2.8C568.6,400.4,571.3,401.2,572.9,400.6 M576.7,389.3c0.1,1.2,1.2,2.6,3,3.7c2.6,1.7,5.7,2.1,7.1,1
	c0.5-0.4,0.8-1,0.7-1.6c-0.1-1.2-1.2-2.6-2.9-3.7c-2.7-1.7-5.7-2.1-7.2-1c-0.5,0.4-0.7,0.9-0.7,1.5V389.3z M591.9,378.3
	c-2.2-1.1-4.5-1.5-6.1-1l-1.6,1.2c-0.2,0.3-0.2,0.6-0.2,1c0,1.7,1.8,3.7,4.5,5.1c2.2,1.1,4.5,1.5,6.1,1.1l1.6-1.2
	C597.1,382.6,595.2,380,591.9,378.3 M594.1,365.5c-2.6-1-4.9-1.1-6.3-0.2c-0.7,0.4-1.2,1.1-1.2,1.9c-0.1,2.2,2.7,5.1,6.5,6.5
	c2.6,1,4.9,1,6.3,0.2c0.7-0.4,1.2-1.1,1.2-1.9C600.6,369.8,597.8,367,594.1,365.5 M591,350.9c-2.6-0.7-4.8-0.5-6,0.6
	c-0.7,0.7-1,1.7-0.7,2.8c0.7,2.6,4.5,5.6,8.7,6.6c2.6,0.7,4.8,0.5,5.9-0.6c0.8-0.7,1-1.7,0.7-2.8C598.9,354.9,595.1,352,591,350.9
	 M555,388.7c0,1.2,1.1,2.6,2.8,3.8c2.6,1.7,5.7,2.2,7.2,1.2c0.5-0.4,0.8-0.9,0.8-1.6c0-1.2-1-2.6-2.8-3.8c-2.6-1.7-5.7-2.2-7.2-1.2
	C555.3,387.5,555,388.1,555,388.7L555,388.7z M572.2,385.7l1.5-1.3c0.7-1.8-1.3-4.4-4.7-6c-2.2-1-4.5-1.4-6-0.9l-1.5,1.3
	c-0.7,1.9,1.3,4.5,4.7,6.1C568.5,385.9,570.8,386.3,572.2,385.7 M568.3,365.6c-2.4-0.7-4.5-0.6-5.7,0.3c-0.7,0.6-1,1.4-0.8,2.3
	c0.4,2.3,3.6,5,7.4,6.2c2.4,0.7,4.5,0.6,5.7-0.3c0.7-0.6,1-1.4,0.9-2.3C575.3,369.4,572,366.7,568.3,365.6 M560.8,351
	c-2.2-0.3-3.9,0.2-4.7,1.3c-0.7,0.9-0.6,2.2,0.2,3.5c1.6,2.7,6,5.3,9.8,5.8v0c2.2,0.3,3.8-0.2,4.6-1.3c0.7-0.9,0.7-2.2-0.2-3.6
	C568.9,354,564.7,351.5,560.8,351 M606.2,332.2c-0.8,0.8-1,2-0.5,3.3c1.1,2.9,5.6,6.1,10,7.1c2.7,0.6,5,0.3,6.1-0.9
	c0.8-0.8,1-2,0.5-3.3c-1.1-3-5.5-6.1-10-7.1C609.6,330.7,607.4,331,606.2,332.2 M598.7,316.5c-0.7,0.9-0.6,2.2,0.2,3.6
	c1.7,2.8,6,5.3,9.8,5.8c2.2,0.2,3.8-0.2,4.6-1.3c0.7-0.9,0.6-2.2-0.2-3.6c-1.6-2.7-6-5.3-9.8-5.8
	C601.1,314.9,599.5,315.4,598.7,316.5 M597.5,308.5c1.6,0,2.8-0.5,3.3-1.5c0.6-1,0.2-2.4-0.9-3.8c-2-2.5-6.1-4.5-9.3-4.5
	c-1.6,0-2.8,0.6-3.3,1.5c-0.6,1.1-0.3,2.4,0.9,3.8C590.3,306.5,594.4,308.5,597.5,308.5 M582.6,291c1.2-0.2,2-0.7,2.3-1.6
	c0.1-0.2,0.1-0.5,0.1-0.7c0-1-0.6-2-1.6-3.1c-2.2-2.2-5.9-3.6-8.4-3.2c-1.2,0.2-1.9,0.7-2.3,1.6c-0.4,1.1,0.1,2.5,1.5,3.8
	C576.4,290,580.1,291.4,582.6,291 M564.2,274L564.2,274c0.8-0.3,1.3-0.8,1.4-1.5c0.2-1.1-0.5-2.4-2-3.6c-2.2-1.8-5.5-2.7-7.3-2
	c-0.8,0.3-1.3,0.8-1.4,1.5c-0.2,1.1,0.5,2.4,2,3.6C559.2,273.7,562.4,274.6,564.2,274 M543.1,257.7L543.1,257.7L543.1,257.7z
	 M536.9,256.7c1.9,1.2,4.7,2.1,6.2,1c0.5-0.3,0.8-0.8,0.8-1.4c0-1.1-0.9-2.3-2.4-3.2c-1.9-1.2-4.6-2-6.1-1c-0.5,0.3-0.8,0.9-0.8,1.4
	C534.6,254.5,535.5,255.7,536.9,256.7 M519.8,242.7l-0.1,0.1L519.8,242.7z M514.8,242.6c2,1.1,4.1,1.2,4.9,0.2l0.3-1.3
	c-0.2-0.9-1.1-1.9-2.4-2.6c-1.7-1-4-1.3-4.9-0.2l-0.3,1.3C512.6,240.9,513.5,241.9,514.8,242.6 M442.2,300.4c-1.7-1-4-1.4-5-0.2
	l-0.3,1.3c0.2,0.9,1.1,1.9,2.4,2.6c2,1.1,4.1,1.2,5,0.2l0.3-1.3C444.4,302.1,443.5,301.1,442.2,300.4 M444.4,304.2l-0.1,0.1
	L444.4,304.2z M491,230.2c1.1,0.5,2.2,0.6,2.9,0.3c0.4-0.2,0.7-0.5,0.8-0.8c0-0.1,0.1-0.3,0.1-0.4c0-1-1.1-2-2.3-2.6
	c-1.1-0.5-2.2-0.6-2.9-0.3l-0.8,0.8C488.4,228.2,489.6,229.5,491,230.2 M494.7,229.6 M466.9,216.6c-0.8-0.3-1.6-0.3-2,0
	c-0.3,0.2-0.5,0.5-0.5,0.9c0,0.9,1,1.7,2,2.1c0.8,0.3,1.6,0.3,2,0c0.4-0.2,0.5-0.6,0.5-0.9v0C468.8,217.8,467.8,216.9,466.9,216.6
	 M441.4,211.2c0.5,0.1,1,0.1,1.3-0.2l0.3-0.3l0-0.6c-0.2-0.6-0.8-1-1.4-1.2c-0.5-0.1-1,0-1.3,0.2l-0.3,0.3l0.1,0.6
	C440.1,210.7,440.8,211.1,441.4,211.2 M431.2,307c-1.1-0.5-2.2-0.6-2.9-0.3l-0.8,0.8c-0.4,1.1,0.9,2.4,2.3,3c1,0.5,2.1,0.6,2.9,0.3
	l1-0.9l-0.1,0.1C433.8,308.9,432.6,307.7,431.2,307 M425.5,316.5c-0.8-0.3-1.6-0.3-2.1,0c-0.3,0.2-0.5,0.5-0.5,0.9
	c0,0.9,1,1.7,2.1,2.1c0.8,0.3,1.5,0.3,2,0c0.3-0.2,0.5-0.6,0.5-0.9v0C427.5,317.7,426.5,316.9,425.5,316.5 M425.8,327.9
	c-0.5-0.1-1-0.1-1.3,0.2l-0.3,0.3l0,0.6c0.2,0.6,0.8,1,1.4,1.2c0.5,0.1,1,0.1,1.3-0.2l0.3-0.3l-0.1-0.6
	C427.1,328.4,426.4,328,425.8,327.9 M582.9,335.1c-2.4-0.3-4.3,0.2-5.2,1.4c-0.4,0.5-0.5,1-0.5,1.6c0,0.7,0.2,1.4,0.6,2.2
	c1.7,3.1,6.4,5.9,10.7,6.5c2.4,0.3,4.3-0.1,5.2-1.3c0.8-1,0.7-2.4-0.1-3.8C591.9,338.5,587.2,335.7,582.9,335.1 M578.8,330.7
	c1.7,0,3-0.6,3.6-1.7c0.2-0.4,0.3-0.7,0.3-1.2c0-1-0.5-2-1.4-3.1c-2.3-2.8-6.9-4.9-10.3-4.9c-1.8,0-3.1,0.6-3.6,1.7
	c-0.6,1.2-0.2,2.7,1.1,4.2C570.8,328.7,575.3,330.8,578.8,330.7 M564.7,314.6L564.7,314.6c1.2-0.3,1.9-0.9,2.2-1.8
	c0.4-1.3-0.4-2.9-2-4.4c-2.7-2.4-6.8-3.9-9.5-3.3c-1.2,0.2-1.9,0.9-2.2,1.8c-0.4,1.3,0.4,2.9,2,4.4
	C557.8,313.7,562,315.2,564.7,314.6 M536.7,291.1c-0.7,0.4-1.1,1-1.2,1.8c-0.1,1.3,0.9,2.9,2.8,4.2c2.8,2,6.5,2.8,8.4,1.8
	c0.7-0.4,1.1-1,1.2-1.8c0.1-1.3-1-2.9-2.8-4.2C542.2,290.9,538.5,290.2,536.7,291.1 M522.8,279.2c-2.8-1.6-5.8-1.8-7-0.5
	c0,0-0.4,1.7-0.4,1.7c0.2,1.3,1.5,2.7,3.4,3.7c2.8,1.6,5.8,1.8,7,0.5l0.1-0.1l-0.1,0.1l0.4-1.6C525.9,281.7,524.6,280.2,522.8,279.2
	 M499.1,267.7c-1.7-0.8-3.3-0.9-4.4-0.5c-0.6,0.3-0.9,0.6-1.1,1.2c-0.4,1.4,1.2,3.4,3.7,4.5c1.7,0.7,3.3,0.9,4.4,0.4
	c0.5-0.2,0.9-0.7,1.1-1.2v0C503.2,270.7,501.6,268.8,499.1,267.7 M474.9,263.8c1.4,0.4,2.6,0.4,3.3-0.1c0.5-0.3,0.7-0.8,0.6-1.4
	c-0.1-1.3-1.8-2.7-3.8-3.4c-1.4-0.5-2.6-0.4-3.3,0.1c-0.5,0.3-0.7,0.8-0.6,1.4C471.2,261.8,473.1,263.2,474.9,263.8 M452.4,257.4
	c1,0.2,1.8,0,2.2-0.5c0.4-0.4,0.5-0.9,0.2-1.5v0c-0.5-1-1.9-2.1-3.4-2.4c-1-0.2-1.8,0-2.3,0.5c-0.4,0.4-0.4,0.9-0.2,1.5
	C449.4,256.1,450.9,257.1,452.4,257.4 M430.9,254c0.6,0.1,1.2-0.2,1.4-0.6c0.1-0.2,0.2-0.3,0.2-0.5c0-0.3-0.1-0.6-0.3-0.9
	c-0.5-0.8-1.7-1.4-2.7-1.4c-0.7,0-1.2,0.2-1.4,0.6c-0.2,0.4-0.2,0.9,0.2,1.4C428.7,253.3,429.9,254,430.9,254 M412,252.1
	c-0.4-0.4-1.1-0.8-1.7-0.7l-0.4,0.1l-0.4,0.5c-0.1,0.3,0,0.8,0.3,1.1c0.4,0.5,1.2,0.7,1.7,0.7l0.4,0l0.4-0.5
	C412.4,252.9,412.3,252.4,412,252.1 M544,338.2c-0.6,1.4,0.1,3.2,1.8,5c2.9,3,8,5.1,11.6,4.7c1.7-0.2,2.8-0.9,3.2-2
	c0.1-0.3,0.2-0.7,0.2-1c0-1.2-0.7-2.6-2-3.9c-3-3.1-8.1-5.2-11.7-4.8C545.6,336.3,544.5,337,544,338.2 M532.2,330.7
	c3.5,2.6,8.1,3.6,10.5,2.4c0.9-0.4,1.4-1.2,1.5-2.1c0.1-1.6-1.2-3.6-3.4-5.3c-3.5-2.6-8.2-3.6-10.5-2.4c-0.9,0.5-1.4,1.2-1.5,2.1
	C528.6,327,529.9,329,532.2,330.7 M515,319.5c3.7,1.9,7.5,2,8.7,0.1c0.4-0.6,0.5-1.3,0.2-2.1c-0.5-1.7-2.3-3.5-4.8-4.8
	c-3.7-2-7.6-2-8.7-0.1c-0.4,0.6-0.4,1.3-0.2,2.1C510.7,316.4,512.5,318.2,515,319.5 M489.7,305c0,2,2.7,4.5,6,5.7
	c2.2,0.8,4.2,0.8,5.4,0c0.6-0.4,1-1.1,1-1.8v0c0-2-2.7-4.5-6-5.7c-2.2-0.8-4.2-0.8-5.4,0C490,303.5,489.7,304.2,489.7,305
	 M479.9,301.7c-0.9-1.9-3.7-3.7-6.4-4.2c-1.7-0.3-3,0-3.7,0.8c-0.3,0.4-0.8,1.1-0.2,2.4c0.9,1.9,3.7,3.8,6.5,4.2
	c1.6,0.3,2.9,0,3.6-0.8C480.1,303.8,480.5,303,479.9,301.7 M459.4,299.1c-1.4-1.6-4-2.8-6-2.8c-1.4,0-2,0.7-2.2,1.1
	c-0.4,0.8-0.1,1.7,0.7,2.7c1.4,1.6,4,2.9,6,2.8c1.4,0,2-0.7,2.2-1.1C460.4,301,460.2,300.1,459.4,299.1L459.4,299.1z"/>
<path class="st1" d="M511.6,424.9c4.2,0,7.7,3.4,7.7,7.6c0,4.2-3.4,7.7-7.7,7.7s-7.7-3.4-7.7-7.7C504,428.3,507.4,424.9,511.6,424.9
	 M511.6,438.8c3.5,0,6.3-2.8,6.3-6.3c0-3.5-2.8-6.3-6.3-6.3s-6.3,2.8-6.3,6.3C505.3,436,508.2,438.8,511.6,438.8 M508.7,428.1h3.4
	c2.1,0,3.1,0.9,3.1,2.6c0,1.5-0.9,2.3-2.1,2.4l2.3,3.7h-1.7l-2.2-3.6h-1.2v3.6h-1.6V428.1z M510.3,431.9h1.2c1,0,2.1-0.1,2.1-1.2
	c0-1.2-1.1-1.2-2.1-1.2h-1.2V431.9z"/>
<path class="st1" d="M90,348.9h15.5v90.6H90V348.9z M272.3,439.5v-90.6h-15v56.7l-62.7-57v90.9h15.7v-55.8L272.3,439.5z
	 M282.2,439.5h15.5v-90.6h-15.5V439.5z M351.2,439.5h15.7v-59.9c0-8.5-3-15.7-9-21.7c-6-6-13.2-9-21.7-9c-8.6,0-15.8,3-21.8,8.9
	c-6,5.9-8.9,13.2-8.9,21.7v59.9H321v-36h30.2V439.5z M321,379.5c0-4.2,1.5-7.8,4.4-10.8c3-3,6.5-4.5,10.7-4.5
	c4.2,0,7.7,1.5,10.7,4.5c2.9,3,4.4,6.6,4.4,10.8v10.8H321V379.5z M452.2,348.9L452.2,348.9h-15v56.7l-62.7-57v90.9h15.7v-55.8
	l61.9,55.8v-77.3h24.6v77.3h15.7v-77.3h23.1v-13.3H452.2z M171.5,423.1c-3.8,1.7-7.8,2.5-12,2.5c-8.5,0-15.7-3-21.7-9
	c-6-6-9-13.2-9-21.7c0-4.1,0.7-7.9,2-11.4c1.5-3.8,3.8-7.3,7-10.5c6-6,13.2-8.9,21.7-8.9c1.9,0,3.7,0.2,5.5,0.5
	c2.2,0.5,5,1.3,8.3,2.8c0.5,0.2,1,0.5,1.4,0.8v-0.1c1.6,0.8,3.4,1.8,5.3,3v-17.5c-6.3-3.2-13-4.8-20.3-4.8c-0.1,0-0.1,0-0.2,0
	c-0.9,0-1.8,0-2.6,0.1c-11.7,0.6-21.7,5-30.1,13.3c-9,8.9-13.5,19.8-13.5,32.6v0.1c0,12.8,4.5,23.7,13.5,32.6
	c9,8.9,19.9,13.4,32.7,13.4c10.1,0,19.3-3.1,27.5-9.2v-35.6h-15.5V423.1z M77.2,397.1c-3-4.1-8-7.2-14.8-9.3
	c-3.9-1.2-6.6-2.1-8.1-2.5c-7.6-2.3-11.5-6-11.5-11.2c0-3.8,1.6-6.7,4.9-8.7c2.1-1.3,4.5-1.9,7-1.9c0,0,7.8-0.7,18.3,5.2v-15.2
	c-12.2-5.6-20.1-4.5-20.1-4.5c-4.9,0.2-9.4,1.4-13.5,3.6c-4.1,2.2-7.4,5.4-10,9.4c-2.5,4-3.8,8.3-3.8,12.9v0.7
	c0,5.3,1.1,9.8,3.4,13.4c2.3,3.6,5.8,6.7,10.7,9.5c3.5,1.3,6.4,2.2,8.7,2.9c5,1.4,8.6,2.8,10.7,4c4,2.3,6,5.2,6,8.8v0.2
	c0,7.8-5.5,11.7-16.4,11.7c0,0-8.7,0.8-20.9-9.8v18.2l5.1,2.4c6.9,3.1,13.3,4.5,19.1,4.2c12.7-0.5,21.7-4.9,26.8-13.3
	c2.3-3.8,3.4-8.3,3.2-13.5C81.8,406.9,80.2,401.2,77.2,397.1"/>
</svg>
